<?xml version="1.0" encoding="utf-8"?>
<!-- Generator: Adobe Illustrator 26.0.1, SVG Export Plug-In . SVG Version: 6.00 Build 0)  -->
<svg version="1.1" id="Calque_1" xmlns="http://www.w3.org/2000/svg" xmlns:xlink="http://www.w3.org/1999/xlink" x="0px" y="0px"
	 viewBox="0 0 577 763" style="enable-background:new 0 0 577 763;" xml:space="preserve">
<style type="text/css">
	.st0{fill:none;stroke:#4D4D4D;stroke-width:6;stroke-miterlimit:10;}
	.st1{fill:#414042;}
	.st2{opacity:0.68;fill:#3FA9F5;}
	.st3{fill:#A67C52;stroke:#C3C3C3;stroke-width:2;stroke-linecap:round;stroke-miterlimit:10;}
</style>
<g>
	<path class="st0" d="M489.2,7.2H90.8C50.1,7.2,17,29.1,17,56.1V705c0,27,33.1,49,73.8,49h398.3c40.8,0,73.8-21.9,73.8-49V56.1
		C563,29.1,529.9,7.2,489.2,7.2z"/>
	<path class="st1" d="M489.2,7.2H90.8C50.1,7.2,17,29.1,17,56.1V705c0,27,33.1,49,73.8,49h398.3c40.8,0,73.8-21.9,73.8-49V56.1
		C563,29.1,529.9,7.2,489.2,7.2z"/>
	<path class="st2" d="M490.4,744.5H89.8c-36.5,0-66.1-29.6-66.1-66.1V81c0-36.5,29.6-66.1,66.1-66.1h400.6
		c36.5,0,66.1,29.6,66.1,66.1v597.5C556.4,715,526.9,744.5,490.4,744.5z"/>
	<line class="st3" x1="243.3" y1="44.9" x2="336.7" y2="44.9"/>
	<g>
		<ellipse cx="208.6" cy="45" rx="4.9" ry="3.3"/>
	</g>
</g>
<path class="st1" d="M22.2,287H11.8c-1,0-1.8-0.8-1.8-1.8v-50.4c0-1,0.8-1.8,1.8-1.8h10.4c1,0,1.8,0.8,1.8,1.8v50.4
	C24,286.2,23.2,287,22.2,287z"/>
<path class="st1" d="M566.9,218h-7.9c-1.7,0-3.1-1.4-3.1-3.1v-47.9c0-1.7,1.4-3.1,3.1-3.1h7.9c1.7,0,3.1,1.4,3.1,3.1v47.9
	C570,216.6,568.6,218,566.9,218z"/>
<path class="st1" d="M567.1,268h-8.1c-1.6,0-2.9-1.3-2.9-2.9v-48.1c0-1.6,1.3-2.9,2.9-2.9h8.1c1.6,0,2.9,1.3,2.9,2.9v48.1
	C570,266.7,568.7,268,567.1,268z"/>
</svg>
